<?xml version="1.0" standalone="no"?>
<!DOCTYPE svg PUBLIC "-//W3C//DTD SVG 1.1//EN" "http://www.w3.org/Graphics/SVG/1.1/DTD/svg11.dtd">
<svg xmlns="http://www.w3.org/2000/svg">
<metadata>Copyright (C) 2018 by original authors @ fontello.com</metadata>
<defs>
<font id="fontello" horiz-adv-x="1000" >
<font-face font-family="fontello" font-weight="400" font-stretch="normal" units-per-em="1000" ascent="850" descent="-150" />
<missing-glyph horiz-adv-x="1000" />
<glyph glyph-name="home2" unicode="&#xe801;" d="M500 725c206 0 375-169 375-375s-169-375-375-375-375 169-375 375 169 375 375 375m0 42c-229 0-417-188-417-417s188-417 417-417 417 188 417 417-188 417-417 417l0 0z m152-594c0 0 0-13-10-13-15 0-107 0-107 0v90c0 0 0 15-14 15h-46c-15 0-12-15-12-15v-90c0 0-98 0-109 0-8 0-8 9-8 9v166l158 134 150-134c-2 0-2-162-2-162z m19 177l-165 148-177-150c-31-23-44 0-44 0l219 194 211-192c0 0-13-27-44 0z" horiz-adv-x="1000" />

<glyph glyph-name="left-arrow" unicode="&#xe802;" d="M285 329c-12 13-12 29 0 42l388 387c12 13 29 13 42 0 12-12 12-29 0-41l-367-367 367-367c12-12 12-29 0-41-7-7-13-9-21-9-9 0-15 2-21 9l-388 387z" horiz-adv-x="1000" />

<glyph glyph-name="lgbt" unicode="&#xe803;" d="M496 548c-13-54 4-113 42-150l10-10-17-11-21-14-8-9-8 9c-56 60-73 156-42 235l8 21 13-19c8-12 15-29 19-48v-4l4 0z m10-402l0 0c4-19 11-36 21-48l13-17 8 19c12 29 17 56 17 85 0 55-21 109-57 148l-4 11-8-9-25-18-13-7 9-10c35-40 50-96 39-154l0 0z m27 494l9-11 10 9c29 27 69 39 108 39 63 0 121-35 153-92 27-47 25-108-5-158-27-48-75-81-129-87l-33 0c-23-2-44-9-61-19l-20-13 23-8c22-8 50-12 77-12 58 0 116 22 156 64 44 42 69 98 69 158 0 48-15 92-44 134l23 27v-21c0-15 10-27 27-27s27 10 27 27v85c0 9-2 15-8 21-5 4-13 9-21 9h-88c-14 0-27-11-27-27s11-28 27-28h23l-29-27c-40 32-92 48-142 48-50 0-98-16-141-52l-7-6 7-10c6-7 12-15 16-23z m-204-298c-23-2-44-9-62-19l-21-13 23-8c23-8 50-12 77-12 54 0 106 18 146 54l8 8-8 6-19 25-8 9-11-7c-25-25-58-39-96-43l-29 0z m-223 279c15 0 27 10 27 27v23l30-29c-28-38-42-86-42-136 0-52 21-104 58-143l9-9 8 9 25 18 14 9-10 6c-37 42-52 98-40 152 13 52 53 98 105 119 14 6 33 10 56 10 50 0 98-23 133-64 31-40 44-90 34-138l0-6c4-17 10-31 18-48l13-19 8 21c13 29 17 56 17 85 0 61-23 115-69 159-44 41-98 64-156 64-31 0-65-8-98-23-15-6-27-16-42-27l-33 27h23c14 0 27 11 27 27s-13 25-27 25h-88c-8 0-14-2-21-6-4-4-6-12-6-19v-87c0-15 13-27 27-27z m557-273l0 0c6 6 8 6 10 4l2 0 2 0c23 2 46 8 65 19l21 12-23 9c-23 8-50 12-77 12-53 0-105-19-146-54l-9-8 9-9 18-25 7-10 10 8c29 25 69 40 108 40h3z m254-363l-29 21 22 23c7 6 9 11 9 21 0 8-2 13-9 21-6 6-10 8-20 8-9 0-13-2-19-6l-23-25-10 10c29 38 43 86 43 132 0 56-21 110-56 148l-4 10-8-8-15-13-19-14 9-11c37-39 52-98 37-156-15-58-54-102-108-117-17-6-34-8-52-8-50 0-98 25-132 64-31 38-43 90-33 140l0 6c-4 17-10 32-19 48l-12 19-9-21c-25-62-20-133 13-194 33-60 92-100 158-110 11-2 23-2 34-2 52 0 102 19 141 52l11-10-23-23c-6-7-9-11-9-21 0-9 3-13 9-21 6-6 10-8 21-8 8 0 12 2 20 8l23 23 23-23c7-6 11-8 21-8 8 0 13 2 21 8 6 6 8 10 8 21-8 6-10 10-14 16z m-446 69l-8 11-11-7c-31-27-67-39-108-39-73 0-138 46-163 112-18 50-8 107 25 152 34 46 82 71 136 71l14 0c23 2 44 9 63 19l21 12-23 7c-27 8-50 12-77 12-65 0-130-31-173-83-42-50-61-117-46-179 6-32 19-61 35-86l-6-10-23 23c-6 6-10 8-21 8s-12-2-18-6l-3 0c-6-4-8-13-8-19 0-8 2-12 8-21l23-23-25-25c-4-6-6-12-6-18 0-9 2-13 8-21 7-7 11-9 21-9s13 2 17 7l27 25 23-23c6-7 10-9 21-9 8 0 12 2 21 9 6 6 8 10 8 21 0 8-2 12-8 20l-23 23 12 13c40-34 92-52 148-52 46 0 88 14 125 39 2 2 6 5 8 7 3 2 5 4 9 6l8 8-8 9c-15 4-19 10-23 16z" horiz-adv-x="1000" />

<glyph glyph-name="twitter2" unicode="&#xe805;" d="M500 723c206 0 375-169 375-375 0-206-169-375-375-375-206 0-375 169-375 375 0 208 169 375 375 375m0 42c-231 0-417-186-417-415 0-231 186-417 417-417s417 188 417 417c0 229-188 415-417 415l0 0z m171-330v-12c0-115-88-248-248-248-50 0-96 15-133 40 6-2 14-2 20-2 42 0 80 14 109 37-38 2-71 27-81 60 6-2 10-2 16-2 9 0 17 2 23 5-39 8-71 43-71 85v2c13-6 25-10 40-12-23 16-40 41-40 72 0 17 4 32 13 44 41-52 106-87 179-91-2 6-2 12-2 18 0 48 39 88 87 88 25 0 48-11 63-27 19 4 39 12 54 21-6-21-21-38-37-48 16 2 35 6 50 14-11-14-25-31-42-44z" horiz-adv-x="1000" />

<glyph glyph-name="youtube2" unicode="&#xe806;" d="M500 725c206 0 375-169 375-375s-169-375-375-375-375 169-375 375 169 375 375 375m0 42c-229 0-417-188-417-417s188-417 417-417 417 188 417 417-186 417-417 417l0 0z m27-273c0 4-2 8-4 12s-6 7-10 9-11 4-17 4c-8 0-13-2-19-6-4-7-8-11-10-17s-2-15-2-25v-29c0-11 0-17 2-23 0-4 2-9 4-13s6-6 10-8 9-2 15-2 10 0 14 2 11 4 13 10c2 5 2 7 4 15 0 6 2 12 2 23v29c0 8 0 15-2 19z m-21-69c0-6-4-12-10-12s-11 6-11 12v60c0 7 5 13 11 13s10-6 10-13v-60z m40-152c0 4-4 8-11 8s-10-4-10-8v-65c0-4 4-8 10-8s11 4 11 8v65z m71 100h-234c-31 0-56-25-56-54v-123c0-29 25-54 56-54h232c31 0 56 23 56 54l2 123c0 29-25 54-56 54z m-217-190h-25v127h-23v19h77v-19l-29 3v-130z m85-2h-18v15c-4-11-25-21-38-13-6 5-6 11-6 17 0 4 0 10 0 21v69h23v-69c0-11 0-15 0-17 4-10 12-4 14 0 0 2 0 6 0 17v69c3 2 25 2 25 2s0-111 0-111z m78 34c0-27-17-44-42-21v-11h-21v146h23v-41c23 18 40 4 40-17v-56z m14 6v33c0 11 0 19 2 25 2 6 6 11 11 15 14 10 43 6 45-13 0-6 3-18 3-29v-14h-42v-15-10-3c0-6 4-10 10-10h4c7 0 11 4 11 10v11 2l17-2c8-48-61-56-61 0z m19 33h23v13c0 6-4 10-11 10h-2c-6 0-10-4-10-10v-13z m-52 181c0-10 0-16 0-18 0-4 2-7 2-11 2-2 4-6 6-6 2-2 6-2 11-2s6 0 8 2 4 4 6 8v-10h27v115h-21v-88c0-4-4-8-8-8-4 0-8 4-8 8v88h-23c0 0 0-78 0-78z m-165 121l31-75v-87h28v87l29 75h-27l-17-56-17 56h-27z" horiz-adv-x="1000" />

<glyph glyph-name="facebook2" unicode="&#xe809;" d="M500 725c206 0 375-169 375-375 0-206-169-375-375-375-206 0-375 169-375 375 0 206 169 375 375 375m0 42c-231 0-417-188-417-417 0-231 188-417 417-417 231 0 417 186 417 417s-186 417-417 417l0 0z m102-273c-19 0-42 0-50 0-10 0-21-11-21-19s0-52 0-52 63 0 69 0c-2-38-6-75-6-75h-61v-221h-91v223h-46v75h44c0 0 0 50 0 60 0 11-2 86 93 86 13 0 42 0 69 0 0-31 0-65 0-77z" horiz-adv-x="1000" />

<glyph glyph-name="right-arrow" unicode="&#xe80b;" d="M327-58c-6-7-12-9-21-9s-14 2-21 9c-12 12-12 29 0 41l365 367-365 367c-12 12-12 29 0 41s30 13 42 0l386-387c12-13 12-29 0-42l-386-387z" horiz-adv-x="1000" />

<glyph glyph-name="maternity" unicode="&#xe80c;" d="M802 133l-127 161h152c13 0 21 10 21 21v85c0 13-10 21-21 21h-252l-44 54 154 140c5 4 7 8 7 14 0 6-2 11-7 15-85 85-216 96-314 31l-52 67c-11 16-29 25-48 25h-142c-12 0-21-11-21-21v-86c0-12 11-20 21-20h111l95-121 61-315-58-69c-3 0-5 0-5 0-56 0-100-45-100-100 0-56 46-100 100-100s100 46 100 100c0 7 0 11-2 15l61 73h156l46-58c-2-11-4-19-4-30 0-56 45-100 100-100s100 46 100 100c2 50-38 94-88 98z m6 244v-42h-164c0 0-34 42-34 42h198z m-166 252l-136-121-106 136c73 46 171 41 242-15z m-250-181l102-127-63-75-39 202z m-59-473c-31 0-58 27-58 58s27 59 58 59 59-27 59-59c0-31-27-58-59-58z m82 119c-9 10-19 21-32 27l138 164 27-33-133-158z m114 71l46 54 42-54h-88z m190-63l-452 573c-4 4-11 8-17 8h-100v42h121c6 0 12-2 17-8l466-590c-14-6-25-14-35-25z m73-127c-32 0-59 27-59 58s27 59 59 59 58-27 58-59-27-58-58-58z" horiz-adv-x="1000" />

<glyph glyph-name="vaahini-woman-internal-network" unicode="&#xe80d;" d="M773 165l31-32c71 73 111 171 111 277 0 111-46 217-123 290l-32-33c69-67 109-161 109-257 2-91-34-179-96-245z m-581 520c-69-75-109-170-109-272 0-103 40-203 111-275l31 31c-62 64-98 152-98 244 0 89 33 175 94 241l-29 31z m493-450l30-29c50 57 77 125 77 198 2 81-32 159-92 215l-29-31c50-48 77-113 77-184 2-62-21-121-63-169z m-395 371c-52-56-82-127-82-202 0-73 27-141 75-196l30 30c-42 43-65 104-65 166 2 65 27 127 71 173l-29 29z m327-64c-32 29-75 46-119 46-46 0-92-19-125-53-23-25-50-66-50-122 0-46 19-92 52-125 23-23 50-40 79-46l9-2v-127h-78v-59h78v-67h72v67h78v59h-78v125l9 2c33 8 60 25 79 45l0 0c33 34 52 80 52 125 0 50-21 98-58 132z m-42-211c-19-18-46-31-75-31-29 0-54 10-77 31-21 27-31 52-31 79 0 30 12 57 31 75 19 21 48 34 77 34 29 0 56-11 73-29 21-19 35-50 35-82 0-29-12-58-33-77z" horiz-adv-x="1000" />

<glyph glyph-name="android" unicode="&#xe80e;" d="M200 496c-15 0-27-4-37-15-11-10-15-23-15-35v-215c0-14 4-27 15-37 10-11 22-15 37-15 15 0 27 4 35 15 11 10 15 23 15 37v215c0 14-4 27-15 35-10 11-22 15-35 15z m71-342c0-14 6-29 17-39 10-11 22-17 39-17h38l0-115c0-14 4-27 14-37 11-11 23-15 36-15 14 0 27 4 37 15 11 10 15 23 15 37v115h68v-115c0-14 5-27 15-37 10-11 23-15 38-15 14 0 27 4 37 15 10 10 15 23 15 37v115h37c15 0 27 6 40 17 10 10 16 23 16 39v334h-462v-334z m344 536l35 64c2 6 0 9-4 13-4 2-8 0-11-2l-35-67c-31 15-65 21-100 21-35 0-69-6-100-21l-35 67c-5 2-7 2-11 2-4-2-4-7-2-11l36-64c-36-19-65-44-86-77-21-34-31-69-31-109h462c0 40-10 75-31 109-25 31-52 56-87 75z m-207-96c-4-4-8-6-14-6-6 0-11 2-13 6-4 4-6 8-6 14 0 7 2 11 6 15 4 4 9 6 13 6 6 0 10-2 14-6 5-4 7-8 7-15s-2-10-7-14z m211 0c-4-4-9-6-13-6-6 0-10 2-14 6-4 4-7 8-7 14 0 7 3 11 7 15s8 6 14 6c7 0 11-2 13-6 4-4 6-8 6-15 0-6-2-10-6-14z m219-113c-11 11-23 15-38 15-15 0-25-4-35-15-11-10-15-23-15-35v-215c0-14 4-27 15-37 10-11 23-15 35-15 15 0 27 4 38 15 10 10 14 23 14 37v215c0 14-4 27-14 35z" horiz-adv-x="1000" />

<glyph glyph-name="apple" unicode="&#xe80f;" d="M727 323c-2 106 86 156 90 158-48 71-125 82-152 84-65 6-127-38-161-38-33 0-83 38-137 36-71-3-136-42-173-105-71-127-17-316 54-418 35-50 77-109 131-107 52 2 73 34 138 34 64 0 81-34 137-34 56 2 94 52 127 102 40 59 57 115 59 119-2 2-111 44-113 169z m-104 310c29 36 48 84 44 134-42-2-92-27-123-63-27-31-50-81-44-129 46-4 94 23 123 58z" horiz-adv-x="1000" />

<glyph glyph-name="linkedin2" unicode="&#xe811;" d="M500 350l0 0 0 0 0 0z m0 375c206 0 375-169 375-375s-169-375-375-375-375 169-375 375 169 375 375 375m0 42c-231 0-417-188-417-417s186-417 417-417 417 188 417 417c0 231-188 417-417 417l0 0z m-202-346h90v-269h-90v269z m44 35l0 0c-32 0-50 21-50 46s21 46 50 46 50-21 50-46-19-46-50-46z m366-304h-89v144c0 35-13 60-46 60-25 0-40-16-46-33-2-6-4-13-4-21v-150h-90c0 0 2 244 0 269h90v-38c12 19 33 44 79 44 58 0 102-37 102-121l4-154 0 0z" horiz-adv-x="1000" />

<glyph glyph-name="google-plus2" unicode="&#xe812;" d="M500 725c15 0 29 0 46-2 152-19 281-131 319-281 14-61 14-123 0-184-34-133-138-237-273-273-29-6-61-10-92-10s-62 4-92 10c-133 34-237 138-273 273-22 94-10 194 36 275 67 113 181 184 308 192 6 0 15 0 21 0m0 42c-8 0-17 0-23 0-144-9-269-88-342-213-52-89-66-202-39-304 37-150 154-267 302-304 33-9 67-13 102-13s69 4 102 13c148 37 265 154 302 302 17 67 17 137 0 204-41 167-183 292-354 313-17 2-33 2-50 2l0 0z m146-334l0-35 37 0 38 0v-23-25l-38 0c-33 0-37 0-37 0 0 0 0-17 0-37l0-36h-23-23v38 35h-37-36v23 23h36 35v37 36h23 25l0-36z m-140 115c17 4 23 8 23 15v2l-60 0c-34 0-63 0-67 0-19-2-39-11-58-23-21-15-36-38-40-65-2-8-2-29 0-39 4-25 15-44 31-55 17-10 36-16 55-16h8l0-7c0-10 4-27 12-37 3-2 3-4 3-4s-3 0-5 0c-23 0-66-11-85-19-21-10-35-27-42-50-2-8-2-27-2-37 4-28 19-48 40-61 10-6 31-12 50-14 12-3 37-3 52 0 25 4 52 14 69 27 25 18 37 45 37 81 0 12-2 21-6 31-8 19-17 29-44 56-21 21-25 27-25 32 0 6 6 12 21 27 23 23 31 41 31 77 0 37-8 58-29 69-2 2-4 2-4 2 0 0 4 2 12 2 9 2 17 4 23 6z m-21-315c0-14-4-25-14-35-11-10-21-17-36-19-31-8-64-2-85 15-4 4-10 10-12 14-7 15-7 34 4 48 10 17 37 34 60 38 8 0 17 0 25 0 33-4 58-27 58-61z m-45 171c-17-14-40-12-59 6-10 11-18 23-23 38-4 15-4 33-2 48 4 21 17 35 34 37 4 0 16 0 23-2 12-2 22-10 31-21 6-10 14-29 16-41 3-25-6-50-20-65z" horiz-adv-x="1000" />

<glyph glyph-name="employe" unicode="&#xe814;" d="M892 83c-82 42-144 67-200 80 2 4 4 10 2 16l-13 50c4 4 7 11 11 15 54 19 81 50 87 94 25 4 46 27 46 54v108c0 27-19 50-44 54-8 154-112 246-281 246-169 0-273-92-281-246-25-6-44-27-44-54v-108c0-32 25-57 56-57h21c6 0 11 3 17 3 8-40 25-78 48-111l-13-50c-2-6 0-10 2-17-56-12-118-35-200-79-29-14-48-46-48-79v-60c0-13 11-23 23-23h346c0 0 0 0 0 0s0 0 0 0c0 0 0 0 0 0h6c0 0 0 0 0 0l132 0c0 0 0 0 0 0h352c12 0 23 10 23 23v60c0 36-17 67-48 81z m-527 92c4-4 10-8 14-12 2-3 6-5 9-7 2-2 4-4 8-4 6-4 14-8 21-10 2 0 2-2 4-2 4-2 8-5 12-5 2 0 7-2 9-2 4-2 10-2 14-4 2 0 7-2 9-2l-27-62-34 45-35 50c0 0 0 0 0 0l-15 21 2 7c2-3 4-5 9-7-2-4 0-6 0-6z m193-44c2 0 7 2 9 2 4 2 8 2 12 5 0 0 2 0 2 2 9 4 15 8 21 12 2 2 4 2 6 4 2 2 7 4 9 7 6 4 10 8 14 12 2 0 2 2 4 4 3 2 5 4 9 6l2-6-15-19c0 0 0 0 0 0l-68-97-28 62c3 0 7 2 9 2 4 0 10 2 14 4z m-58-43l15-32 6-16h-42l21 48z m-37-96h77l4-25-88 0 7 25z m268 348c0 0 2 0 2 0-2-7-4-11-6-17 2 4 2 10 4 17z m38 170c4 0 8-4 8-8v-108c0-4-4-9-8-9h-21c-4 0-8 5-8 9v10 98c0 4 4 8 8 8h21z m-269 244c83 0 223-27 233-200 0 0 0 0 0 0-23 109-118 190-233 190s-210-81-233-190c0 0 0 0 0 0 10 173 150 200 233 200z m-240-360c0-4-4-9-8-9h-21c-4 0-8 5-8 9v108c0 4 4 8 8 8h21c4 0 8-4 8-8v-98-10z m48 106v4c0 106 86 192 192 192s192-86 192-192v-4-98c0-39-13-83-32-121-33-8-79-14-145-14-13 0-23-11-23-23s10-23 23-23c41 0 77 2 108 6-13-14-29-27-46-37 0 0-2 0-2-2-4-3-8-5-15-7-2 0-2-2-4-2-4-2-8-4-12-4-2 0-4-2-6-2-5-2-9-2-13-2-2 0-4 0-6-2-6 0-13-2-19-2-6 0-12 0-19 2-2 0-4 0-6 2-4 0-8 2-12 2-3 0-5 2-7 2-4 2-8 2-12 4-2 0-2 2-4 2-5 2-9 4-15 7 0 0-2 0-2 2-4 2-10 6-15 10 0 0 0 0 0 0-60 44-100 127-100 202v98z m-202-496c0 17 9 29 23 38 88 46 152 71 209 79l18-25 63-86-9-43h-304v37z m788-37h-302l-9 43 82 111c56-8 120-33 208-79 15-9 23-21 23-38v-37z" horiz-adv-x="1000" />

<glyph glyph-name="family" unicode="&#xe815;" d="M754 319c15 0 21 10 21 21 0 6-2 10-6 14-4 4-9 6-17 6-14 0-21-10-21-20 0-7 2-11 4-15 9-4 13-6 19-6z m27 131c32 25 50 63 50 102 0 71-58 129-129 129s-129-58-129-129c0-39 19-77 50-102-21-8-40-19-56-31-19 14-40 25-65 25s-46-9-64-25c-17 12-36 23-57 31 32 25 50 63 50 102 0 71-58 129-129 129-71 0-129-58-129-129 0-39 19-77 50-102-90-37-165-177-165-269 0-29 40-68 107-100 48-25 116-43 193-52 46-6 94-8 144-8 50 0 98 2 144 8 77 11 146 29 194 52 64 34 106 71 106 100-2 92-79 232-165 269z m-481-27c40 0 79-15 110-38-4-12-8-25-8-37 0-27 11-52 29-69-52-29-91-135-93-202-63 11-117 25-157 46-43 19-71 44-71 60 0 102 94 240 190 240z m0 217c48 0 88-40 88-88 0-48-40-87-88-87-48 0-87 39-87 87 0 48 39 88 87 88z m200-392c63 0 119-113 119-181-77-9-161-9-238 2 0 66 57 179 119 179z m-44 129c11 15 27 23 44 23 19 0 33-8 44-23 6-8 10-19 10-31 0-29-25-54-54-54-29 0-54 25-54 54 0 10 4 21 10 31l0 0z m244 46c96 0 192-142 192-244 0-21-40-44-75-60-40-19-94-36-157-46-2 67-41 173-93 202 18 19 29 44 29 69 0 12-2 27-8 37 33 27 72 42 112 42z m-87 129c0 48 39 88 87 88s88-40 88-88c0-48-40-87-88-87s-87 39-87 87z m160-256c17-21 25-46 25-73 0-13 10-21 21-21s21 11 21 21c0 35-13 71-34 98-6 10-21 10-31 4s-8-21-2-29z" horiz-adv-x="1000" />

<glyph glyph-name="returning-mothers-program" unicode="&#xe816;" d="M654-94c-23 0-31 31-35 63-6 37-11 73-19 102-17 4-31 8-46 14-2-8-4-16-6-27-17-75-29-96-50-91-13 2-35 4-27 168-25 21-38 40-38 40-2 4-4 8-2 15 11 43 27 81 42 110-40-50-50-102-50-104-6-21-10-61-17-98-12-108-18-133-41-138-7-2-19 0-27 17-13 25-21 56-25 88-17-71-23-92-46-90-21 2-23 23-25 92 0 48 2 93 4 125 0 6 0 14 2 21-25-38-40-42-50-42-8 0-15 4-19 12-12 25 17 71 27 86 25 37 57 62 90 71-21 10-36 33-36 60 0 38 28 67 63 67s62-29 62-67c0-25-12-46-31-56 13-2 25-6 38-11 10 59 50 200 196 227-38 5-48 42-55 71-4 15-8 32-14 40-6 6-9 14-6 23 2 6 6 12 12 16 0 7 0 15 2 23 2 23 15 36 25 42 25 15 58 6 75 0 23 13 40 8 48 4 35-19 44-79 42-116 0-13 2-21 6-25 8-9 25-9 25-9 8 0 15-4 17-10 2-6 2-15-5-21-27-29-66-35-108-15-10-6-21-12-33-14 37 0 73-13 102-38 94-79 104-260 104-268 0 0 0 0 0 0 0-25-2-50-21-55-21-6-33 17-44 36-2 2-2 6-4 6 2-2 7-6 11-6-4 0-9 4-13 6-2 4-4 8-4 13l-2 4c-2 6-4 12-8 18 20-129-2-204-5-208-2-8-10-12-16-12h-11c-20-157-39-157-54-159 0 0 0 0 0 0z m-112 225c2 0 6 0 8-2 19-10 42-16 69-23 6-2 12-6 14-12 9-36 15-75 21-117 0-4 2-6 2-10 7 20 15 58 23 116 2 9 9 15 19 15h10c7 29 17 112-12 233 0 2 0 2 0 4 0 17 0 36 17 40 16 4 27-10 35-23 15-23 27-52 37-75l5-10c-5 35-21 175-92 235-27 23-56 31-92 27-171-19-183-219-183-221 0-6-4-12-8-14-7-2-13-4-17 0-56 29-100 25-140-13 2 0 5 0 9 0 21-6 18-27 14-85-2-29-4-67-4-108 0 4 2 8 2 12l4 21c5 21 11 42 30 42 18 0 20-19 27-57 4-23 8-52 16-77 4 23 9 56 11 79 4 42 10 82 16 102 0 3 21 105 111 171 33 25 52 38 66 23 13-14 3-31-27-64l0 0c0 0-48-63-68-146 6-6 16-19 33-31 4-5 6-11 6-15-2-42-2-77 0-102 2 8 4 17 6 27 5 21 9 37 13 50 2 4 6 8 10 10 5-2 7-2 9-2z m-221 300c-15 0-25-12-25-29s10-29 25-29 25 12 25 29-11 29-25 29z m229 252c8-12 13-29 15-43 8-32 12-42 25-42 14 0 33 8 45 19 7 4 15 6 21 2 15-9 29-13 40-13-2 2-4 2-6 4-9 9-19 25-17 55 2 37-8 75-21 81-4 2-10 0-19-6-6-5-12-5-18-2-13 4-40 14-52 6-3 0-7-4-7-15-2-19 0-23 0-23 7-8 2-18-6-23z m-8 13c0 0 0 0 0 0 0 0 0 0 0 0z" horiz-adv-x="1000" />

<glyph glyph-name="flexi-policy" unicode="&#xe818;" d="M656 500c0-15-10-25-25-25h-12-23-154-17-15c-14 0-25 10-25 25s11 25 25 25h15 75 44 79 10c13 0 23-10 23-25z m0 83c0-14-10-25-25-25h-12-23-154-17-15c-14 0-25 11-25 25s11 25 25 25h15 75 44 79 10c13 0 23-10 23-25z m-31-141h-185l0 0h-38l0 0h-187c-15 0-25-11-25-25s10-25 25-25h102 62 81 57 108c15 0 25 10 25 25s-12 25-25 25z m-100-142c10 17 21 33 35 48h-97l0 0h-88l0 0h-162c-15 0-25-10-25-25l0 0c0-15 10-25 25-25h102 75 56 69 12v2h-2z m-310-102h158 96 29c0 17 4 33 8 48h-85-2-204c-15 0-25-11-25-25 0-13 12-23 25-23z m-2-98h300c-7 15-11 31-13 48h-287c-15-2-25-13-25-27 0-11 10-21 25-21z m-130 404v-400c0-60 46-104 105-104h400c-17 15-34 29-46 48h-352c-30 0-57 25-57 56v386h88c58 0 104 45 104 104v60h329c29 0 56-25 56-56v-38-137c7 0 15 0 23 0 9 0 17 0 25 0v121 16 38c0 58-45 104-104 104h-344c-6 0-12 0-16-2-6-2-11-6-15-10l-181-155c-4-4-8-10-10-14-3-4-5-13-5-17z m650-523c-110 0-202 92-202 202s92 202 202 202c113 0 202-89 202-202s-89-202-202-202z m0 369c-91 0-164-73-164-165s73-164 164-164c92 0 165 73 165 164s-73 165-165 165z m0-298c-45 0-85 25-108 58 2 0 6 3 8 3 32 8 59 20 59 20 2 5 4 11 4 15-8 10-11 23-13 33-2 0-6 4-10 19-6 21 0 23 4 23-2 10-2 19 0 29 2 13 8 21 15 27 4 6 10 11 14 13 4 2 11 4 15 6 4 2 8 2 12 2 15 2 23-2 32-6 10-6 14-15 14-15s27-2 15-62c4 0 6-7 2-21-4-17-11-19-13-17-2-8-6-21-12-29 0-2 2-10 4-15 0 0 29-12 58-18 5 0 7-2 9-2-23-36-63-59-109-63z" horiz-adv-x="1000" />

<glyph glyph-name="gender-diversity" unicode="&#xe819;" d="M771 740v-61h69l-84-83c-41 33-93 50-148 50-50 0-98-15-137-44-4-4-11-8-15-12-14-13-29-30-41-44-5-4-9-11-11-17-23-35-33-77-33-123 0-43 12-87 33-123 17 13 31 32 42 50-8 23-15 48-15 73s4 50 15 73c4 6 6 15 10 21 11 17 25 33 42 46 4 4 10 8 15 10 29 17 60 29 95 29 100 0 182-81 182-181s-82-181-182-181c-35 0-68 8-95 29-11-14-25-31-42-44 39-27 85-43 137-43 134 0 242 108 242 241 0 57-17 107-48 146l83 83v-68h59v173c-2 0-173 0-173 0z m-267-459c23 36 34 77 34 123 0 44-13 88-34 123-16-12-31-31-41-50 8-23 14-48 14-73s-4-50-14-73c-5-6-7-14-11-21-10-16-25-33-42-45-4-5-10-9-14-11-29-16-61-29-96-29-100 0-181 81-181 181s81 182 181 182c35 0 69-9 96-30 10 15 27 32 42 44-40 27-86 44-138 44-133 0-242-108-242-242 0-121 94-223 211-239v-80h-69v-60h69v-58h60v58h67v60h-69v80c40 4 75 20 108 41 5 4 11 9 15 13 15 12 29 29 42 44 6 8 10 14 12 18z" horiz-adv-x="1000" />

<glyph glyph-name="legal" unicode="&#xe81a;" d="M904 144l-316 281 29 29 14-14c9-9 19-15 32-15 12 0 22 6 29 13l60 58c11 10 15 23 15 33s-2 23-13 34l-187 187c-13 15-27 17-38 17-12 0-25-7-31-15 0 0-58-58-58-60-7-9-13-17-13-32s8-25 15-31l14-14-143-146-15 14c-8 9-19 15-31 15-15 0-25-8-32-15l-60-58c-8-8-12-19-12-31s4-25 14-34l188-187c10-10 23-15 35-15 10 0 21 5 29 11 2 0 63 64 65 66 6 7 10 17 10 28 0 14-8 25-14 33l-15 14 29 30c0 0 281-317 281-319 9-8 15-15 32-15 12 0 25 9 33 17 0 0 63 62 65 69s4 12 4 21c0 12-9 25-15 31z m-441 523l58 62c4 4 6 9 8 6 2-2 4-4 9-8l187-187c2-2 4-5 6-7 2-2 0-4-6-8l-60-56c-2-2-7-6-7-6s0 2-4 6l-189 189c-5 5-5 5-5 5 0 0 0 2 3 4z m-3-407l-58-60c-2-2-4-2-6-2-2 0-4 0-6 2l-188 188c-2 2-2 4-2 8 0 2 0 4 2 6l58 56c7 7 9 2 9 2l189-189c5-4 5-6 5-6s0-2-3-5z m-16 80l-106 106 143 144 107-107-144-143z m429-234l-60-62c-3 0 0 0-7 4l-279 321 31 31 317-281c6-6 4-6-2-13z m-392-2h-341c-32 0-57-25-57-56v-56c0-34 25-59 57-59h341c32 0 57 25 57 57v56c0 33-25 58-57 58z m19-114c0-11-8-19-19-19h-341c-11 0-19 8-19 19v56c0 10 8 19 19 19h341c11 0 19-9 19-19v-56z" horiz-adv-x="1000" />

<glyph glyph-name="operation" unicode="&#xe81b;" d="M575 46h-150c-10 0-19-8-19-19 0-52 42-94 94-94s94 42 94 94c0 11-9 19-19 19z m-75-75c-25 0-46 14-52 37h106c-8-21-29-37-54-37z m-85 429m85 367c-154 0-281-125-281-282 0-97 52-187 133-239l8-67c5-31 30-54 61-54h154c29 0 56 23 60 54l9 67c83 50 133 142 133 239 2 157-123 282-277 282z m119-492c-4-2-9-8-11-15l-10-75c-2-12-13-22-23-22h-154c-11 0-21 10-23 22l-10 75c0 7-5 11-11 15-75 44-123 123-123 210 4 136 113 244 246 244s242-108 242-241c0-88-46-169-123-213z m-21-171h-198c-10 0-19-8-19-19s9-18 19-18h198c10 0 19 8 19 18s-9 19-19 19z m-77 42v158l35 38c9 8 9 21 0 29-8 8-21 8-29 0l-27-27-27 27c-8 8-21 8-29 0-9-8-9-21 0-29l35-38v-158m42 0v158l35 38c9 8 9 21 0 29-8 8-21 8-29 0l-27-27-27 27c-8 8-21 8-29 0-9-8-9-21 0-29l35-38v-158" horiz-adv-x="1000" />

<glyph glyph-name="sales" unicode="&#xe81c;" d="M433 110c-39 0-73-33-73-72s34-73 73-73 73 33 73 73c0 41-33 72-73 72z m0-104c-18 0-33 15-33 34 0 18 15 33 33 33s34-15 34-33c-2-19-17-34-34-34z m257 104c-40 0-73-33-73-72s33-73 73-73c39 0 73 33 73 73 0 41-32 72-73 72z m0-104c-19 0-34 15-34 34 0 18 15 33 34 33s33-15 33-33c0-19-15-34-33-34z m18 490h-293c-11 0-21-8-21-21 0-10 8-21 21-21h293c11 0 21 9 21 21s-10 21-21 21z m-16-106h-261c-10 0-21-9-21-21s9-21 21-21h261c10 0 21 8 21 21s-9 21-21 21z m216 198c-8 10-18 14-31 14h-639l-13 63c-2 12-12 25-23 29l-89 39c-11 5-23 0-28-10-4-10 0-23 11-27l89-40 100-481c5-19 21-33 40-33h490c10 0 20 8 20 21s-8 20-20 20h-490l-12 61h506c19 0 35 14 39 33l59 277c2 13-2 25-9 34z m-89-303h-515l-56 278h629l-58-278z" horiz-adv-x="1000" />

<glyph glyph-name="system" unicode="&#xe81d;" d="M838 735h-678c-41 0-77-35-77-79v-471c0-43 36-79 80-79h243v-100h-66c-13 0-21-8-21-21 0-12 10-20 21-20h83 152 83c13 0 21 10 21 20s-8 21-21 21h-81v100h258c44 0 80 36 80 79v471c2 44-34 79-77 79l0 0z m-678-43h678c18 0 35-17 35-36v-412h-746v412c0 19 15 36 33 36z m375-684h-87v100l87 0 0-100 0 0z m303 142h-678c-18 0-35 17-35 35v15h746v-15c2-18-15-35-33-35l0 0z" horiz-adv-x="1000" />

<glyph glyph-name="banking" unicode="&#xe81e;" d="M917 404c-21 131-102 244-223 309-61 31-129 45-198 45h-4c-23 0-40-18-40-39v-29l0 0c-160 0-306-100-354-255-79-256 110-491 354-491 123 0 227 52 300 152l27-21c6-4 15-8 23-8 2 0 4 0 6 0 11 2 19 8 25 16l7 9c68 91 93 202 77 312z m-111-285l-4-6-306 222v380h2c60 0 121-13 175-40 110-56 181-158 200-277 17-100-6-198-67-279z m-337 181l248-179c-71-96-175-144-298-134-119 11-225 84-271 194-96 236 77 465 304 465l0 0v-313c0-12 6-25 17-33z" horiz-adv-x="1000" />

<glyph glyph-name="bpo" unicode="&#xe81f;" d="M867 321v8c0 13-4 23-13 29 0 13 2 25 2 40 0 202-154 369-356 369s-356-167-356-369c0-13 0-25 2-40-8-6-15-16-13-29v-8c-25-13-39-52-35-96 4-44 25-79 52-90v-2c2-18 17-31 35-29 3 0 5 0 5 0v-4c2-25 23-44 48-42s43 23 41 48l-23 259c-2 25-23 43-48 41-8 0-16-4-23-8 0 2 0 6 0 10 0 105 50 196 130 255 25 18 106 37 185 39l0 0 0 0c79 0 158-19 185-39 78-57 128-148 128-253 0-2 0-6 0-10-7 4-15 8-23 8-25 2-46-16-48-41l-23-259c-2-25 16-45 41-48 17 0 32 7 40 19-23-50-79-102-221-96-4 19-21 34-41 34h-59c-23 0-41-19-41-42s18-42 41-42h61c20 0 37 15 41 34 63-2 213 4 254 141 9 5 15 15 17 25v2c27 9 48 44 52 90 0 44-14 83-37 96z m-659 85c-8 0-16-4-23-8 0 2 0 6 0 10" horiz-adv-x="1000" />

<glyph glyph-name="consulting" unicode="&#xe820;" d="M556 158c0 13-8 21-21 21h-387c-13 0-23 11-23 23v433c0 13 10 23 23 23h702c13 0 23-10 23-23v-431c0-12-10-23-23-23h-52c-13 0-21-8-21-21v-104l-119 119c-8 8-20 8-29 0-8-8-8-21 0-29l134-136c6-6 14-10 22-10 5 0 9 0 13 2 12 4 21 17 21 29v107h31c35 0 65 29 65 64v433c0 36-30 65-65 65h-702c-35 0-65-29-65-65v-431c0-35 30-64 65-64h385c13-2 23 6 23 18z m232 369c0 13-9 21-21 21h-534c-12 0-20-8-20-21s8-21 20-21h534c12 0 21 9 21 21z m0-112c0 12-9 20-21 20h-534c-12 0-20-8-20-20s8-21 20-21h534c12 0 21 10 21 21z m0-113c0 13-9 21-21 21h-267c-12 0-21-8-21-21s9-21 21-21h267c12 0 21 11 21 21z" horiz-adv-x="1000" />

<glyph glyph-name="hr" unicode="&#xe821;" d="M717 673c-59 58-136 90-217 90s-158-32-217-90-89-135-89-217c0-56 12-102 39-146 25-39 57-70 92-106 65-62 135-135 167-267 0-4 4-6 8-6 4 0 8 2 8 6 32 134 102 205 167 267 35 34 67 67 92 106 27 44 39 92 39 146 0 82-31 159-89 217z m-217-456c-131 0-240 108-240 239s109 240 240 240 240-108 240-240c0-133-109-239-240-239z m38 246c-3 6-3 12 2 20 2 5 2 9 2 11s2 6 4 8c6 8 10 27 6 29 0 0-2 9-2 17 0 12 0 17-2 21-4 8-13 14-21 14-4 0-10 2-12 5-2 2-7 4-13 4-17 0-35-11-44-23-6-11-8-21-8-44 0-12 0-15 4-19 2-2 4-6 4-6s2-2 2-4c3-2 5-6 5-11s2-8 4-10 2-6 2-8 0-2 0-4l29-23h10l28 23z m70-42c-10 4-16 8-27 10-10 4-27 11-31 15s-10 8-10 8c0-8 0-25-2-39-11 8-30 20-30 20l-8 5-29-30c0 0-8 25-4 48-2-2-7-4-9-6-6-6-18-12-50-19-10-2-20-8-20-8-11-6-17-71-17-75v-4h262v6c-6 27-12 63-25 69z m-114-58c-11 12-19 31-21 45 10 9 17 17 23 21l6-12-8-54z m25-3l-6 57 6 12c6-4 14-10 21-14-2-11-13-38-21-55z" horiz-adv-x="1000" />

<glyph glyph-name="left_comma" unicode="&#xe822;" d="M625 552c-33-29-60-64-81-106-21-40-31-86-31-138 0-68 20-127 60-175 42-50 96-73 167-73 45 0 87 13 123 40 35 27 54 65 54 115 0 29-11 58-34 85-23 27-54 42-93 42-40 0-75-13-105-36-12 19-18 48-18 90 0 33 4 62 14 85 9 25 23 46 40 63 35 31 89 54 162 69v29l-70-4c-23-5-48-9-71-17-46-17-86-40-117-69m-175 61v29c-52 0-102-9-146-25-46-17-83-38-116-67-36-31-63-67-80-108-16-38-25-84-25-134 0-68 19-127 59-175 39-50 93-73 162-73 48 0 88 13 125 40 36 25 52 65 52 115 0 29-10 58-31 85-23 27-54 42-94 42-23 0-41-4-58-11-17-6-31-14-46-27-12 21-19 52-19 90 0 66 19 116 57 148 35 33 89 56 160 71" horiz-adv-x="1000" />

<glyph glyph-name="right_comma" unicode="&#xe823;" d="M375 142c33 29 60 64 81 106 21 40 32 85 32 137 0 69-21 128-61 175-42 50-96 73-167 73-45 0-87-12-122-39-36-27-55-65-55-115 0-29 11-58 34-85 23-27 54-42 93-42 40 0 75 13 105 36 12-19 18-48 18-90 0-33-4-63-14-85-9-25-23-46-40-63-35-31-89-54-162-69v-31l71 6c22 4 47 9 70 17 46 17 86 40 117 69m175-59v-31c52 0 102 8 146 25 46 17 83 38 117 67 35 31 62 66 79 108 16 40 27 86 27 136 0 68-19 127-59 175-39 50-93 72-162 72-48 0-88-12-125-39-35-25-52-65-52-115 0-29 10-58 31-85 23-27 54-42 94-42 23 0 42 4 58 11 17 6 31 14 46 27 13-21 19-52 19-90 0-67-19-117-56-148-38-35-92-58-163-71" horiz-adv-x="1000" />

<glyph glyph-name="down_arrow" unicode="&#xe824;" d="M500 106l-417 417 71 71 346-346 346 346 71-71-417-417z" horiz-adv-x="1000" />
</font>
</defs>
</svg>
